#!OML:ASF X:\für Bonn\!DataBase\2005_08_12_Daniel\c3d\Daniel.ASF
:FULLY-SPECIFIED
:DEGREES
61
root 13.5858 15.5986 12.814 715.653 -129.023 -5.04003
lowerback 39.6101 5.50032 -3.52913
upperback 9.30691 2.38552 -5.95843
thorax -8.77571 0.278192 -5.38743
lowerneck -8.9868 -0.312593 -5.32713
upperneck 3.27926 0.192911 -0.712843
head 2.61276 -0.0247958 0.706776
rclavicle -3.18055e-014 4.77083e-015
rhumerus -38.4471 -6.62458 -81.1558
rradius 76.4464
rwrist 13.7391
rhand -34.6 6.34151
rfingers 7.12502
rthumb -7.75869 -23.4961
lclavicle -3.18055e-014 4.77083e-015
lhumerus 140.902 149.375 245.324
lradius 75.0042
lwrist -28.1355
lhand -30.6877 5.69209
lfingers 7.12502
lthumb -3.98154 35.6346
rfemur 12.3078 -4.2937 19.7161
rtibia 52.0617
rfoot -29.3134 0.31351
rtoes -12.4434
lfemur -41.9071 -1.29344 -24.8355
ltibia 54.316
lfoot -7.23633 -7.0051
ltoes -9.80822
62
root 13.4751 15.6034 12.7316 716.211 -128.934 -5.13582
lowerback 39.485 5.57909 -3.77464
upperback 9.22831 2.41213 -5.96342
thorax -8.8259 0.300001 -5.27579
lowerneck -9.15153 -0.354961 -5.36412
upperneck 3.13121 0.145016 -0.714283
head 2.59481 -0.0477639 0.710395
rclavicle -3.4191e-014 -7.4743e-014
rhumerus -38.5053 -6.63887 -81.114
rradius 76.3525
rwrist 13.6614
rhand -34.5924 6.34471
rfingers 7.12502
rthumb -7.75135 -23.4932
lclavicle -3.4191e-014 -7.4743e-014
lhumerus 141.107 149.446 245.465
lradius 74.9909
lwrist -28.0354
lhand -30.6612 6.1321
lfingers 7.12502
lthumb -3.95596 36.0751
rfemur 12.2122 -4.26343 19.7215
rtibia 51.9968
rfoot -28.6391 0.0738112
rtoes -12.4159
lfemur -42.3867 -1.31716 -24.9748
ltibia 55.0325
lfoot -7.48515 -7.21228
ltoes -8.86944
63
root 13.363 15.6102 12.6486 716.726 -128.877 -5.25206
lowerback 39.3721 5.66674 -4.08489
upperback 9.16837 2.42108 -5.94742
thorax -8.86161 0.311284 -5.10029
lowerneck -9.29048 -0.363978 -5.44431
upperneck 2.97523 0.14384 -0.698399
head 2.56839 -0.0472198 0.729371
rclavicle -4.53229e-014 -4.77083e-014
rhumerus -38.5824 -6.60293 -81.067
rradius 76.3193
rwrist 13.5489
rhand -34.4818 6.51364
rfingers 7.12502
rthumb -7.64462 -23.3282
lclavicle -4.53229e-014 -4.77083e-014
lhumerus 141.362 149.445 245.607
lradius 74.9077
lwrist -28.0635
lhand -30.6569 6.78256
lfingers 7.12502
lthumb -3.95182 36.7257
rfemur 12.1499 -4.16189 19.7202
rtibia 51.9566
rfoot -27.8483 -0.193605
rtoes -11.9951
lfemur -42.7643 -1.33936 -25.1392
ltibia 55.732
lfoot -7.77956 -7.37766
ltoes -7.9928
64
root 13.2484 15.6178 12.5675 717.196 -128.778 -5.33897
lowerback 39.2654 5.70774 -4.29076
upperback 9.13628 2.40762 -5.95975
thorax -8.86693 0.311011 -4.9996
lowerneck -9.40695 -0.389198 -5.43502
upperneck 2.76965 0.109615 -0.725103
head 2.52124 -0.062431 0.71684
rclavicle 1.51076e-014 -9.54166e-015
rhumerus -38.6199 -6.57019 -81.0227
rradius 76.3196
rwrist 13.3962
rhand -34.3803 6.53438
rfingers 7.12502
rthumb -7.54662 -23.311
lclavicle 1.51076e-014 -9.54166e-015
lhumerus 141.662 149.518 245.79
lradius 74.8852
lwrist -28.0011
lhand -30.5629 7.30832
lfingers 7.12502
lthumb -3.8611 37.2531
rfemur 12.0764 -4.04395 19.7505
rtibia 51.9355
rfoot -26.878 -0.435468
rtoes -11.3639
lfemur -43.1001 -1.49276 -25.2708
ltibia 56.4123
lfoot -8.11978 -7.45421
ltoes -7.35419
65
root 13.1323 15.6255 12.4861 717.565 -128.738 -5.38378
lowerback 39.2136 5.78513 -4.5231
upperback 9.08394 2.43158 -5.91487
thorax -8.91181 0.327744 -4.84134
lowerneck -9.51113 -0.399424 -5.56495
upperneck 2.63703 0.110616 -0.702938
head 2.49647 -0.0616077 0.746594
rclavicle -3.89618e-014 -4.13472e-014
rhumerus -38.711 -6.41547 -80.8661
rradius 76.3037
rwrist 13.1819
rhand -34.254 6.64945
rfingers 7.12502
rthumb -7.42475 -23.2003
lclavicle -3.89618e-014 -4.13472e-014
lhumerus 141.922 149.562 246.035
lradius 74.8426
lwrist -27.8802
lhand -30.5713 7.7396
lfingers 7.12502
lthumb -3.86919 37.6842
rfemur 12.0283 -3.87926 19.8025
rtibia 51.9649
rfoot -25.805 -0.686704
rtoes -10.8355
lfemur -43.3103 -1.63362 -25.3653
ltibia 57.062
lfoot -8.54752 -7.49695
ltoes -6.5872
66
root 13.0167 15.6362 12.4043 717.877 -128.67 -5.39198
lowerback 39.1518 5.82596 -4.69408
upperback 9.07414 2.42648 -5.90115
thorax -8.90584 0.328364 -4.73465
lowerneck -9.59576 -0.423046 -5.67522
upperneck 2.45789 0.0874468 -0.646997
head 2.45307 -0.0701602 0.78235
rclavicle 2.70347e-014 -4.77083e-015
rhumerus -38.7966 -6.26476 -80.7753
rradius 76.4619
rwrist 13.0531
rhand -34.0673 6.595
rfingers 7.12502
rthumb -7.24451 -23.261
lclavicle 2.70347e-014 -4.77083e-015
lhumerus 142.264 149.625 246.272
lradius 74.8334
lwrist -27.7518
lhand -30.5129 8.08455
lfingers 7.12502
lthumb -3.81274 38.0302
rfemur 11.9423 -3.78744 19.8746
rtibia 52.0279
rfoot -24.5975 -1.05441
rtoes -10.4713
lfemur -43.4777 -1.75753 -25.4449
ltibia 57.6873
lfoot -9.00305 -7.49716
ltoes -5.86824
67
root 12.9007 15.6484 12.3223 718.131 -128.636 -5.41614
lowerback 39.1408 5.87722 -4.85475
upperback 9.06552 2.42343 -5.91782
thorax -8.91422 0.327866 -4.66869
lowerneck -9.69058 -0.422336 -5.65541
upperneck 2.37153 0.0881038 -0.631447
head 2.44146 -0.0680669 0.783933
rclavicle -1.59028e-015 1.11319e-014
rhumerus -38.8384 -6.06785 -80.733
rradius 76.5657
rwrist 12.7761
rhand -33.9486 6.58343
rfingers 7.12502
rthumb -7.12997 -23.2765
lclavicle -1.59028e-015 1.11319e-014
lhumerus 142.608 149.746 246.474
lradius 74.841
lwrist -27.6284
lhand -30.5099 8.26786
lfingers 7.12502
lthumb -3.80984 38.2136
rfemur 11.8463 -3.66797 19.9358
rtibia 52.1786
rfoot -23.2802 -1.47959
rtoes -10.0829
lfemur -43.5247 -1.81891 -25.5268
ltibia 58.2738
lfoot -9.51683 -7.58359
ltoes -5.32408
68
root 12.7854 15.6605 12.242 718.255 -128.608 -5.34581
lowerback 39.1928 5.91704 -4.95746
upperback 9.06803 2.42747 -5.88743
thorax -8.93021 0.328819 -4.58647
lowerneck -9.76027 -0.445175 -5.79357
upperneck 2.27019 0.0706459 -0.557252
head 2.42174 -0.0746869 0.831125
rclavicle -1.35174e-014 7.63333e-014
rhumerus -38.8395 -5.87539 -80.6152
rradius 76.6549
rwrist 12.5528
rhand -33.7889 6.6204
rfingers 7.12502
rthumb -6.97575 -23.2447
lclavicle -1.35174e-014 7.63333e-014
lhumerus 142.958 149.864 246.786
lradius 74.9101
lwrist -27.479
lhand -30.4381 8.37592
lfingers 7.12502
lthumb -3.74052 38.3228
rfemur 11.7729 -3.57494 20.0311
rtibia 52.375
rfoot -21.9157 -1.84692
rtoes -9.66805
lfemur -43.5006 -1.89998 -25.5537
ltibia 58.8469
lfoot -10.0811 -7.57656
ltoes -5.05383
69
root 12.6704 15.6728 12.1608 718.328 -128.606 -5.21376
lowerback 39.187 5.96282 -5.09141
upperback 9.08611 2.44097 -5.81013
thorax -8.91082 0.333964 -4.43872
lowerneck -9.74762 -0.45084 -5.94865
upperneck 2.11493 0.0735529 -0.563816
head 2.36767 -0.0731254 0.855358
rclavicle -1.41535e-013 2.22639e-014
rhumerus -38.8076 -5.54298 -80.4911
rradius 76.7655
rwrist 12.3431
rhand -33.701 6.61552
rfingers 7.12502
rthumb -6.89091 -23.2523
lclavicle -1.41535e-013 2.22639e-014
lhumerus 143.269 149.918 247.119
lradius 74.9781
lwrist -27.2873
lhand -30.4011 8.21695
lfingers 7.12502
lthumb -3.70482 38.1645
rfemur 11.6437 -3.47277 20.1645
rtibia 52.683
rfoot -20.4303 -2.27199
rtoes -9.18777
lfemur -43.4466 -1.97754 -25.5182
ltibia 59.3867
lfoot -10.6487 -7.55097
ltoes -4.46855
